<?xml version="1.0" standalone="no"?>
<!DOCTYPE svg PUBLIC "-//W3C//DTD SVG 20010904//EN"
 "http://www.w3.org/TR/2001/REC-SVG-20010904/DTD/svg10.dtd">
<svg version="1.0" xmlns="http://www.w3.org/2000/svg"
 width="894.000000pt" height="233.000000pt" viewBox="0 0 894.000000 233.000000"
 preserveAspectRatio="xMidYMid meet">

<g transform="translate(0.000000,233.000000) scale(0.100000,-0.100000)"
fill="#000000" stroke="none">
<path d="M157 2213 c-4 -3 -7 -79 -7 -169 0 -89 -3 -169 -6 -178 -5 -12 -21
-16 -75 -16 l-69 0 0 -115 0 -114 73 -3 72 -3 5 -330 c4 -284 7 -334 22 -360
9 -16 19 -37 21 -46 3 -9 26 -33 51 -53 63 -52 151 -71 319 -70 100 1 132 5
144 16 11 12 15 42 16 124 l1 109 -89 6 c-80 6 -91 9 -112 33 -23 27 -23 30
-23 290 0 190 3 265 12 274 8 8 45 12 99 12 55 0 90 4 95 11 9 15 9 158 0 187
-7 21 -13 22 -95 22 -54 0 -91 4 -99 12 -8 8 -12 63 -12 184 l0 172 -31 6
c-42 8 -304 8 -312 -1z"/>
<path d="M863 2213 c-22 -4 -23 -8 -23 -113 0 -63 4 -111 10 -115 16 -10 321
-8 331 2 6 6 8 59 7 119 l-3 109 -150 1 c-82 1 -160 0 -172 -3z"/>
<path d="M2668 2213 c-16 -4 -18 -21 -18 -172 0 -116 -4 -171 -12 -179 -7 -7
-42 -12 -85 -12 -86 0 -85 2 -81 -135 l3 -90 85 -5 85 -5 6 -285 c8 -324 16
-403 50 -452 66 -97 147 -124 368 -121 107 1 146 5 152 15 14 22 11 238 -3
239 -7 1 -38 1 -68 0 -84 -2 -109 8 -136 59 -23 43 -24 52 -24 270 0 161 4
232 13 250 12 24 18 25 117 30 l105 5 3 75 c2 41 0 90 -3 108 l-6 32 -92 0
c-142 0 -139 -5 -136 194 1 89 -1 168 -5 174 -5 8 -51 12 -154 11 -81 -1 -155
-3 -164 -6z"/>
<path d="M5361 2195 c-18 -8 -43 -15 -55 -15 -12 0 -42 -13 -67 -28 -46 -30
-89 -98 -89 -143 0 -13 -7 -36 -14 -51 -8 -16 -18 -49 -22 -75 -4 -26 -15 -65
-25 -88 -10 -22 -19 -53 -19 -68 0 -15 -7 -41 -15 -57 -9 -16 -18 -51 -22 -77
-8 -65 -43 -120 -93 -149 -23 -13 -47 -24 -54 -24 -6 0 -35 -13 -64 -28 -66
-35 -96 -90 -89 -162 7 -76 27 -172 41 -199 26 -51 59 -168 54 -192 -3 -13
-13 -52 -22 -86 -10 -35 -16 -86 -14 -115 l3 -53 105 1 c74 0 114 5 135 16 17
8 52 18 79 22 27 3 59 12 70 19 12 8 41 17 65 21 24 4 53 13 64 21 12 8 31 15
42 15 11 0 36 8 55 19 19 10 50 22 67 25 18 4 35 12 39 17 3 5 20 15 38 23 42
18 105 82 112 115 3 14 10 36 15 49 15 37 10 69 -14 98 -23 26 -24 26 -82 14
-33 -6 -70 -18 -82 -26 -12 -8 -33 -14 -46 -14 -12 0 -39 -8 -60 -19 -20 -10
-53 -22 -74 -26 -20 -4 -46 -13 -57 -21 -11 -8 -42 -14 -68 -14 -80 0 -93 40
-55 180 8 30 22 69 31 85 9 17 16 35 16 41 0 16 88 104 104 104 7 0 19 6 25
14 6 7 30 16 52 20 23 4 51 13 62 21 12 8 32 15 46 15 13 0 50 12 82 28 46 22
61 35 78 70 12 23 21 52 21 63 0 34 -38 79 -66 79 -14 0 -37 6 -52 14 -15 8
-45 17 -66 21 -43 9 -61 40 -52 91 12 59 102 114 189 114 23 0 71 7 107 15 36
9 105 20 153 26 94 10 182 40 204 67 23 29 63 118 63 139 0 35 -43 42 -176 32
-66 -5 -139 -16 -163 -24 -25 -8 -60 -15 -79 -15 -20 0 -64 -5 -100 -11 -69
-12 -112 -2 -112 26 0 48 -79 70 -149 40z"/>
<path d="M7425 2013 c-11 -3 -31 -14 -44 -24 -13 -11 -28 -19 -33 -19 -11 0
-61 -36 -107 -77 -73 -66 -104 -67 -125 -5 -6 17 -16 36 -23 43 -15 15 -97 3
-113 -16 -7 -8 -18 -15 -25 -15 -26 0 -67 -45 -95 -105 -17 -36 -30 -71 -30
-78 0 -8 -6 -20 -14 -26 -8 -7 -18 -26 -21 -43 -14 -62 -56 -129 -88 -143 -18
-7 -42 -24 -55 -37 -20 -22 -22 -33 -20 -119 2 -81 0 -99 -20 -134 -12 -22
-22 -47 -22 -56 0 -9 -6 -22 -14 -28 -8 -7 -18 -27 -22 -44 -3 -18 -11 -38
-16 -45 -15 -18 -50 -140 -54 -192 -6 -59 25 -95 92 -110 90 -20 138 2 175 82
5 13 21 41 34 63 14 22 30 51 36 65 6 14 15 32 20 40 5 8 14 26 19 40 6 14 14
32 20 40 5 8 16 30 24 48 8 17 21 32 29 32 15 0 72 -43 135 -101 9 -8 41 -31
70 -49 28 -18 52 -37 52 -41 0 -4 9 -11 21 -14 20 -7 80 -43 106 -64 6 -6 23
-13 37 -17 14 -3 30 -12 36 -19 6 -8 24 -17 40 -20 16 -3 34 -12 40 -20 6 -8
25 -17 42 -21 17 -3 45 -15 62 -25 17 -10 38 -19 46 -19 37 -1 43 -16 23 -61
-11 -24 -27 -50 -36 -58 -10 -7 -17 -17 -17 -22 0 -5 -17 -34 -38 -66 -47 -72
-54 -84 -90 -158 -76 -156 -91 -212 -72 -271 10 -30 17 -34 75 -47 53 -12 75
-13 130 -2 91 17 109 36 110 117 0 64 13 99 80 213 13 22 30 54 38 70 8 17 21
36 30 44 10 7 17 17 17 21 0 9 87 142 98 150 4 3 12 14 17 26 15 30 335 444
381 491 11 10 44 48 74 83 52 60 143 161 178 199 10 10 58 62 107 116 50 54
111 122 137 149 76 81 78 84 78 119 0 23 -11 45 -41 80 -38 44 -44 47 -89 47
l-48 0 -120 -127 c-179 -191 -213 -228 -289 -320 -29 -35 -60 -71 -69 -81 -9
-9 -48 -56 -86 -104 -67 -85 -88 -98 -102 -61 -10 24 13 321 29 383 37 148 32
201 -27 260 -37 36 -45 40 -92 40 -42 0 -57 -5 -74 -23 -12 -13 -22 -33 -22
-45 0 -13 -7 -39 -15 -60 -9 -20 -20 -77 -25 -127 -5 -49 -14 -106 -21 -125
-15 -40 -19 -474 -6 -572 6 -50 4 -61 -12 -77 -17 -17 -23 -18 -67 -6 -84 23
-186 74 -310 158 -148 100 -148 100 -140 130 5 20 16 29 49 38 23 6 49 17 57
24 8 7 26 16 40 20 39 12 79 44 160 125 89 89 110 140 117 270 4 75 1 91 -21
140 -24 52 -92 130 -114 130 -5 0 -21 9 -35 20 -27 21 -104 34 -142 23z m53
-275 c29 -29 3 -112 -57 -176 -58 -63 -147 -122 -234 -157 -80 -32 -111 -30
-114 5 -5 52 245 319 312 333 41 9 81 7 93 -5z"/>
<path d="M6557 1948 c-25 -22 -77 -93 -77 -105 0 -8 -103 -187 -111 -193 -4
-3 -10 -17 -14 -32 -4 -15 -14 -33 -22 -40 -8 -7 -19 -21 -25 -33 -5 -11 -20
-38 -33 -60 -14 -22 -31 -54 -39 -71 -8 -17 -22 -36 -30 -44 -9 -7 -16 -17
-16 -22 0 -24 -128 -180 -144 -175 -8 2 -13 79 -16 248 -5 221 -7 247 -25 274
-29 44 -35 46 -92 40 -71 -7 -117 -36 -132 -82 -21 -66 -24 -192 -7 -393 9
-108 16 -234 16 -280 0 -108 13 -152 56 -195 38 -38 75 -45 108 -20 11 8 27
15 36 15 28 0 131 107 252 260 37 47 73 92 81 100 7 8 26 35 42 60 16 25 34
50 40 55 10 9 76 104 100 144 6 9 31 48 56 86 25 39 54 84 63 100 9 17 30 50
46 75 105 163 102 205 -17 288 -41 28 -63 28 -96 0z"/>
<path d="M1752 1859 c-35 -4 -74 -14 -85 -22 -12 -8 -35 -17 -50 -21 -57 -14
-184 -118 -232 -191 -69 -105 -108 -255 -94 -360 22 -168 38 -217 92 -296 29
-42 130 -139 151 -145 12 -4 28 -12 36 -19 17 -14 94 -41 159 -57 24 -5 110
-8 195 -7 124 3 155 7 176 22 13 9 32 17 42 17 17 0 41 9 96 39 35 18 152 128
152 143 0 5 9 22 21 37 14 19 19 36 14 50 -6 20 -13 21 -151 21 l-145 0 -50
-42 c-74 -64 -179 -94 -241 -69 -13 5 -34 12 -48 15 -38 8 -116 85 -130 128
-6 21 -16 40 -21 43 -14 9 -11 51 4 64 10 7 140 12 418 13 l404 3 -4 69 c-1
38 -9 87 -17 109 -8 22 -14 51 -14 66 0 14 -11 49 -25 76 -13 28 -25 53 -25
57 0 14 -46 74 -90 118 -55 55 -102 88 -138 96 -15 4 -34 13 -43 20 -32 28
-223 41 -357 23z m217 -223 c49 -22 111 -85 111 -111 0 -7 7 -18 15 -25 8 -7
15 -26 15 -41 0 -46 -28 -51 -258 -47 -159 2 -205 6 -211 17 -12 18 29 107 69
148 42 45 117 82 167 83 23 0 63 -10 92 -24z"/>
<path d="M3703 1861 c-34 -4 -72 -15 -85 -23 -13 -8 -35 -18 -50 -22 -55 -13
-188 -124 -223 -187 -44 -76 -75 -152 -75 -181 -1 -18 -5 -53 -10 -78 -11 -58
12 -252 34 -285 9 -13 16 -30 16 -37 1 -37 162 -218 195 -218 7 0 24 -9 37
-20 14 -10 43 -24 64 -29 22 -6 64 -17 94 -26 77 -23 232 -15 320 14 115 40
173 73 233 136 78 81 84 89 92 117 4 12 13 30 20 38 7 8 18 41 24 73 6 31 15
66 21 76 15 29 12 152 -5 201 -8 23 -15 52 -15 63 0 54 -103 214 -171 268 -41
31 -80 57 -99 65 -8 4 -38 17 -66 30 -42 19 -73 24 -170 28 -66 3 -147 1 -181
-3z m223 -267 c90 -44 135 -133 141 -282 4 -80 1 -102 -18 -150 -31 -76 -81
-139 -119 -147 -16 -4 -32 -11 -35 -16 -10 -16 -102 -10 -148 10 -61 26 -110
90 -130 171 -32 127 -32 127 4 260 20 71 61 123 124 157 55 30 116 29 181 -3z"/>
<path d="M847 1844 c-11 -11 -8 -1047 3 -1064 7 -12 40 -16 164 -18 147 -3
155 -2 165 17 8 14 10 183 9 543 l-3 523 -166 3 c-91 1 -168 -1 -172 -4z"/>
</g>
</svg>
