<svg version="1" xmlns="http://www.w3.org/2000/svg" width="666.667" height="666.667" viewBox="0 0 500.000000 500.000000"><path d="M33 250v250l100.3-.1c89.8-.1 108.5-.5 120.7-2.4 1.9-.3 5.3-.8 7.5-1.1 2.2-.3 10.8-2.3 19.1-4.4 69.9-17.7 130.2-66.9 162-132 2.5-5.2 5.5-11.8 6.5-14.5 1.1-2.8 2.6-6.4 3.4-8.1 1.4-3 8-25.1 8.9-29.7.2-1.2.9-4.2 1.5-6.7 1.2-5.5 1.8-9 2.7-14.9.3-2.5.8-5.7 1.1-7.1 1.2-6.2 1.1-47-.2-57.5-3.7-30.6-11-55.4-24.1-81.8-4.5-9.2-7.4-14.3-16.7-29.2-1.4-2.3-12.8-17.8-13.6-18.5-.4-.3-2.1-2.3-4-4.5C377.3 51.2 334 23.1 289 10.2c-11.9-3.5-27.1-6.8-34.5-7.6-2.7-.4-6.1-.9-7.5-1.3-1.4-.4-50.1-.9-108.2-1L33-.1V250zm201.5-114.8c16.2 2.1 35.5 9.5 50.4 19.3 9.5 6.3 24.3 20.9 31.2 31 14.1 20.5 20.8 41.9 20.7 67 0 11.9-.6 16.1-4.3 33-1.7 7.5-12.5 28.7-19.3 37.6-16.7 22.1-40.4 37.5-67.7 44.3-10.1 2.5-17.9 2.9-50.5 3l-31.5.1V133.9l32 .2c17.6.1 35.2.5 39 1.1z"/></svg>